<?xml version="1.0" encoding="utf-8"?>
<svg id="svg4190" version="1.1" width="354.36978" height="293.64462" viewBox="0 0 354.36978 293.64462" xmlns="http://www.w3.org/2000/svg">
  <rect style="fill-rule: evenodd; stroke: none; stroke-width: 1px; stroke-linecap: butt; stroke-linejoin: miter; stroke-opacity: 1; fill: rgb(255, 255, 255);" id="rect4202" width="125.21274" height="39.450592" x="-2.6367189e-07" y="5.2001951e-08" ry="18.010054"/>
  <rect style="fill-rule: evenodd; stroke: none; stroke-width: 1px; stroke-linecap: butt; stroke-linejoin: miter; stroke-opacity: 1; fill: rgb(255, 255, 255);" id="rect4204" width="83.734772" height="94.400833" x="20.582916" y="37.735348" ry="0"/>
  <path style="fill-opacity: 1; stroke: none; stroke-width: 4; stroke-linejoin: miter; stroke-miterlimit: 3; stroke-dasharray: none; stroke-dashoffset: 0; stroke-opacity: 1; fill: rgb(255, 255, 255);" d="m 75.68405,80.134353 a 55.101349,53.601341 0 0 0 -55.101561,53.601557 55.101349,53.601341 0 0 0 55.101561,53.60156 55.101349,53.601341 0 0 0 55.10156,-53.60156 55.101349,53.601341 0 0 0 -8.74804,-28.98047 16.844538,16.844538 0 0 1 -0.875,0.0312 16.844538,16.844538 0 0 1 -16.84375,-16.767577 55.101349,53.601341 0 0 0 -28.63477,-7.88476 z" id="path4328"/>
  <rect style="fill-rule: evenodd; stroke: none; stroke-width: 1px; stroke-linecap: butt; stroke-linejoin: miter; stroke-opacity: 1; fill: rgb(255, 255, 255);" id="rect4346" width="82.35762" height="86.665031" x="-187.14349" y="71.003418" transform="matrix(0,-1,1,0,0,0)"/>
  <rect ry="18.010054" y="148.87521" x="-208.57106" height="39.450592" width="125.21274" id="rect4400" style="fill-rule: evenodd; stroke: none; stroke-width: 1px; stroke-linecap: butt; stroke-linejoin: miter; stroke-opacity: 1; fill: rgb(255, 255, 255);" transform="matrix(0,-1,1,0,0,0)"/>
  <rect ry="18.010054" y="-293.64462" x="-354.36978" height="39.450592" width="125.21274" id="rect4411" style="fill-rule: evenodd; stroke: none; stroke-width: 1px; stroke-linecap: butt; stroke-linejoin: miter; stroke-opacity: 1; fill: rgb(255, 255, 255);" transform="scale(-1,-1)"/>
  <rect ry="0" y="-259.76859" x="-333.6308" height="99.975311" width="83.734772" id="rect4413" style="fill-rule: evenodd; stroke: none; stroke-width: 1px; stroke-linecap: butt; stroke-linejoin: miter; stroke-opacity: 1; fill: rgb(255, 255, 255);" transform="scale(-1,-1)"/>
  <path id="path4415" d="m 278.52965,211.79502 a 55.101349,53.601341 0 0 0 55.10156,-53.60156 55.101349,53.601341 0 0 0 -55.10156,-53.60156 55.101349,53.601341 0 0 0 -55.10156,53.60156 55.101349,53.601341 0 0 0 8.74804,28.98047 16.844538,16.844538 0 0 1 0.875,-0.0312 16.844538,16.844538 0 0 1 16.84375,16.76758 55.101349,53.601341 0 0 0 28.63477,7.88476 z" style="fill-opacity: 1; stroke: none; stroke-width: 4; stroke-linejoin: miter; stroke-miterlimit: 3; stroke-dasharray: none; stroke-dashoffset: 0; stroke-opacity: 1; fill: rgb(255, 255, 255);"/>
  <rect transform="matrix(0,1,-1,0,0,0)" y="-282.26627" x="104.71629" height="83.714188" width="82.488464" id="rect4417" style="fill-rule: evenodd; stroke: none; stroke-width: 1px; stroke-linecap: butt; stroke-linejoin: miter; stroke-opacity: 1; fill: rgb(255, 255, 255);"/>
</svg>