<?xml version="1.0" encoding="UTF-8" standalone="no"?>
<!-- Created with Inkscape (http://www.inkscape.org/) -->

<svg
   xmlns:dc="http://purl.org/dc/elements/1.1/"
   xmlns:cc="http://creativecommons.org/ns#"
   xmlns:rdf="http://www.w3.org/1999/02/22-rdf-syntax-ns#"
   xmlns:svg="http://www.w3.org/2000/svg"
   xmlns="http://www.w3.org/2000/svg"
   xmlns:sodipodi="http://sodipodi.sourceforge.net/DTD/sodipodi-0.dtd"
   xmlns:inkscape="http://www.inkscape.org/namespaces/inkscape"
   id="svg4190"
   version="1.1"
   inkscape:version="0.91 r13725"
   width="354.36978"
   height="293.64462"
   viewBox="0 0 354.36978 293.64462"
   sodipodi:docname="logo.svg">
  <metadata
     id="metadata4196">
    <rdf:RDF>
      <cc:Work
         rdf:about="">
        <dc:format>image/svg+xml</dc:format>
        <dc:type
           rdf:resource="http://purl.org/dc/dcmitype/StillImage" />
        <dc:title></dc:title>
      </cc:Work>
    </rdf:RDF>
  </metadata>
  <defs
     id="defs4194" />
  <sodipodi:namedview
     pagecolor="#ffffff"
     bordercolor="#666666"
     borderopacity="1"
     objecttolerance="10"
     gridtolerance="10"
     guidetolerance="10"
     inkscape:pageopacity="0"
     inkscape:pageshadow="2"
     inkscape:window-width="1449"
     inkscape:window-height="735"
     id="namedview4192"
     showgrid="false"
     inkscape:snap-bbox="true"
     inkscape:bbox-paths="true"
     inkscape:bbox-nodes="true"
     inkscape:snap-bbox-edge-midpoints="true"
     inkscape:snap-bbox-midpoints="true"
     inkscape:object-paths="true"
     inkscape:snap-intersection-paths="true"
     inkscape:object-nodes="true"
     inkscape:snap-smooth-nodes="true"
     inkscape:snap-midpoints="true"
     inkscape:snap-center="true"
     inkscape:snap-object-midpoints="true"
     inkscape:snap-global="true"
     fit-margin-top="0"
     fit-margin-left="0"
     fit-margin-right="0"
     fit-margin-bottom="0"
     inkscape:zoom="0.29150391"
     inkscape:cx="311.6698"
     inkscape:cy="494.44787"
     inkscape:window-x="0"
     inkscape:window-y="0"
     inkscape:window-maximized="0"
     inkscape:current-layer="svg4190" />
  <rect
     style="fill:#000000;fill-rule:evenodd;stroke:none;stroke-width:1px;stroke-linecap:butt;stroke-linejoin:miter;stroke-opacity:1"
     id="rect4202"
     width="125.21274"
     height="39.450592"
     x="-2.6367189e-07"
     y="5.2001951e-08"
     ry="18.010054" />
  <rect
     style="fill:#000000;fill-rule:evenodd;stroke:none;stroke-width:1px;stroke-linecap:butt;stroke-linejoin:miter;stroke-opacity:1"
     id="rect4204"
     width="83.734772"
     height="94.400833"
     x="20.582916"
     y="37.735348"
     ry="0" />
  <path
     inkscape:connector-curvature="0"
     style="fill:#000000;fill-opacity:1;stroke:none;stroke-width:4;stroke-linejoin:miter;stroke-miterlimit:3;stroke-dasharray:none;stroke-dashoffset:0;stroke-opacity:1"
     d="m 75.68405,80.134353 a 55.101349,53.601341 0 0 0 -55.101561,53.601557 55.101349,53.601341 0 0 0 55.101561,53.60156 55.101349,53.601341 0 0 0 55.10156,-53.60156 55.101349,53.601341 0 0 0 -8.74804,-28.98047 16.844538,16.844538 0 0 1 -0.875,0.0312 16.844538,16.844538 0 0 1 -16.84375,-16.767577 55.101349,53.601341 0 0 0 -28.63477,-7.88476 z"
     id="path4328" />
  <rect
     style="fill:#000000;fill-rule:evenodd;stroke:none;stroke-width:1px;stroke-linecap:butt;stroke-linejoin:miter;stroke-opacity:1"
     id="rect4346"
     width="82.35762"
     height="86.665031"
     x="-187.14349"
     y="71.003418"
     transform="matrix(0,-1,1,0,0,0)" />
  <rect
     ry="18.010054"
     y="148.87521"
     x="-208.57106"
     height="39.450592"
     width="125.21274"
     id="rect4400"
     style="fill:#000000;fill-rule:evenodd;stroke:none;stroke-width:1px;stroke-linecap:butt;stroke-linejoin:miter;stroke-opacity:1"
     transform="matrix(0,-1,1,0,0,0)" />
  <rect
     ry="18.010054"
     y="-293.64462"
     x="-354.36978"
     height="39.450592"
     width="125.21274"
     id="rect4411"
     style="fill:#000000;fill-rule:evenodd;stroke:none;stroke-width:1px;stroke-linecap:butt;stroke-linejoin:miter;stroke-opacity:1"
     transform="scale(-1,-1)" />
  <rect
     ry="0"
     y="-259.76859"
     x="-333.6308"
     height="99.975311"
     width="83.734772"
     id="rect4413"
     style="fill:#000000;fill-rule:evenodd;stroke:none;stroke-width:1px;stroke-linecap:butt;stroke-linejoin:miter;stroke-opacity:1"
     transform="scale(-1,-1)" />
  <path
     inkscape:connector-curvature="0"
     id="path4415"
     d="m 278.52965,211.79502 a 55.101349,53.601341 0 0 0 55.10156,-53.60156 55.101349,53.601341 0 0 0 -55.10156,-53.60156 55.101349,53.601341 0 0 0 -55.10156,53.60156 55.101349,53.601341 0 0 0 8.74804,28.98047 16.844538,16.844538 0 0 1 0.875,-0.0312 16.844538,16.844538 0 0 1 16.84375,16.76758 55.101349,53.601341 0 0 0 28.63477,7.88476 z"
     style="fill:#000000;fill-opacity:1;stroke:none;stroke-width:4;stroke-linejoin:miter;stroke-miterlimit:3;stroke-dasharray:none;stroke-dashoffset:0;stroke-opacity:1" />
  <rect
     transform="matrix(0,1,-1,0,0,0)"
     y="-282.26627"
     x="104.71629"
     height="83.714188"
     width="82.488464"
     id="rect4417"
     style="fill:#000000;fill-rule:evenodd;stroke:none;stroke-width:1px;stroke-linecap:butt;stroke-linejoin:miter;stroke-opacity:1" />
</svg>
